<?xml version="1.0" standalone="no"?>
<!DOCTYPE svg PUBLIC "-//W3C//DTD SVG 20010904//EN"
 "http://www.w3.org/TR/2001/REC-SVG-20010904/DTD/svg10.dtd">
<svg version="1.0" xmlns="http://www.w3.org/2000/svg"
 width="137.000000pt" height="137.000000pt" viewBox="0 0 137.000000 137.000000"
 preserveAspectRatio="xMidYMid meet">
<metadata>
Created by potrace 1.14, written by Peter Selinger 2001-2017
</metadata>
<g transform="translate(0.000000,137.000000) scale(0.100000,-0.100000)"
fill="#000000" stroke="none">
<path d="M730 680 l0 -227 94 3 c82 2 102 6 146 30 49 27 108 97 111 133 9
101 -4 155 -49 207 -46 54 -100 74 -207 78 l-95 3 0 -227z m205 110 c17 -11
38 -31 45 -46 20 -37 18 -103 -5 -138 -22 -33 -80 -62 -122 -61 l-28 0 -3 136
-3 137 42 -4 c23 -2 56 -13 74 -24z"/>
<path d="M395 886 c-38 -17 -70 -52 -89 -96 -15 -38 -24 -329 -9 -331 32 -6
70 -4 78 2 6 4 10 25 9 46 l-3 38 84 -1 c47 0 88 -3 91 -7 4 -4 7 -23 6 -42
-1 -24 3 -35 13 -36 19 -2 63 -2 73 0 10 2 3 291 -9 326 -12 38 -48 79 -87 99
-37 19 -116 20 -157 2z m132 -94 c25 -19 43 -91 33 -132 -6 -24 -9 -25 -84
-25 -42 0 -82 2 -87 6 -6 3 -8 31 -6 63 5 72 33 106 86 106 20 0 46 -8 58 -18z"/>
</g>
</svg>
